<?xml version="1.0" encoding="utf-8"?>
<!-- Generator: Adobe Illustrator 22.0.0, SVG Export Plug-In . SVG Version: 6.00 Build 0)  -->
<svg version="1.1" id="Calque_1" xmlns="http://www.w3.org/2000/svg" xmlns:xlink="http://www.w3.org/1999/xlink" x="0px" y="0px"
	 viewBox="0 0 2180 410" style="enable-background:new 0 0 2180 410;" xml:space="preserve">
<style type="text/css">
@media (prefers-color-scheme: dark) {
	.st0{fill:#fff;stroke:#fff;stroke-width:5;stroke-miterlimit:10;}
}
@media (prefers-color-scheme: light) {
	.st0{fill:#333333;stroke:#333333;stroke-width:5;stroke-miterlimit:10;}
}
	.st1{fill:#F15B29;stroke:#F15B29;stroke-width:40;stroke-miterlimit:10;}
	.st2{fill:#ED1B24;stroke:#ED1B24;stroke-width:40;stroke-miterlimit:10;}
	.st3{fill:#F7941D;stroke:#F7941D;stroke-width:40;stroke-miterlimit:10;}
	.st4{fill:#9E1F64;stroke:#9E1F64;stroke-width:40;stroke-miterlimit:10;}
	.st5{fill:#27AAE2;stroke:#27AAE2;stroke-width:40;stroke-miterlimit:10;}
	.st6{fill:#FF0000;}
	.st7{fill:#FFFFFF;}
</style>
<g>
	<g>
		<g>
			<path class="st0" d="M520.1,104.7c0-2.3,0.9-4.4,2.6-6.1c1.7-1.7,3.7-2.6,6.1-2.6h85.8c16.9,0,30.5,3.3,41,9.8
				c10.5,6.5,17.9,14.4,22.4,23.5c4.5,9.2,6.7,18.1,6.7,26.9c0,11.9-2.9,21.6-8.6,29c-5.8,7.4-11.4,12.8-17,16.2
				c9,6,16.3,13.6,21.9,22.9c5.7,9.3,8.5,19.6,8.5,30.9c0,11.1-2.7,21.6-8.2,31.5s-13.5,18-24.2,24.2c-10.7,6.2-23.4,9.3-38.1,9.3
				h-90.2c-2.4,0-4.4-0.9-6.1-2.6c-1.7-1.7-2.6-3.7-2.6-6.1V104.7z M550.5,189.5h60.8c14.1,0,24.7-2.8,32-8.3
				c7.3-5.5,10.9-13.5,10.9-24c0-10.5-3.6-18.5-10.9-24c-7.3-5.5-17.9-8.3-32-8.3h-60.8V189.5z M550.5,291.3h65.3
				c13.6,0,24.3-3.5,31.8-10.4c7.6-6.9,11.4-15.5,11.4-25.8c0-10.4-3.6-19.2-10.9-26.2c-7.3-7-18-10.6-32.3-10.6h-65.3V291.3z"/>
			<path class="st0" d="M893.2,98.7c1.7,1.7,2.6,3.7,2.6,6.1v128c0,27.7-7.1,49.8-21.3,66.1c-14.2,16.3-35.8,24.5-64.8,24.5
				c-29.4,0-51.2-8.2-65.1-24.5c-14-16.3-21-38.3-21-66.1v-128c0-2.3,0.9-4.4,2.6-6.1c1.7-1.7,3.7-2.6,6.1-2.6h13.1
				c2.3,0,4.4,0.9,6.1,2.6c1.7,1.7,2.6,3.7,2.6,6.1v129.6c0,20.5,4.9,35.9,14.6,46.2c9.7,10.4,23.4,15.5,41.1,15.5
				c17.7,0,31.5-5.2,41.3-15.5c9.8-10.3,14.7-25.8,14.7-46.2V104.7c0-2.3,0.9-4.4,2.6-6.1c1.7-1.7,3.7-2.6,6.1-2.6h12.8
				C889.5,96.1,891.5,97,893.2,98.7z"/>
			<path class="st0" d="M1102.8,279.6c-7.7,13.1-18.2,23.2-31.7,30.1c-13.4,6.9-28.9,10.4-46.4,10.4h-75.2c-2.4,0-4.4-0.9-6.1-2.6
				c-1.7-1.7-2.6-3.7-2.6-6.1V104.7c0-2.3,0.9-4.4,2.6-6.1c1.7-1.7,3.7-2.6,6.1-2.6h73.3c17.7,0,33.4,3.5,47.2,10.4
				c13.8,6.9,24.6,17,32.5,30.1c7.9,13.1,11.9,28.5,12.2,46.2c0.2,6.4,0.3,14.8,0.3,25.3c0,10.5-0.1,18.9-0.3,25.3
				C1114.5,251.1,1110.5,266.5,1102.8,279.6z M971.3,124.9v166.4h51.8c21.3,0,36.7-5.5,46.2-16.6c9.5-11.1,14.5-25.4,14.9-42.9
				c0.2-6.4,0.3-14.3,0.3-23.7c0-9.4-0.1-17.3-0.3-23.7c-0.4-17.3-5.7-31.5-15.7-42.7c-10-11.2-25.7-16.8-47-16.8H971.3z"/>
			<path class="st0" d="M1283.3,103c13.2,6.7,23.3,14.9,30.2,24.6c6.9,9.7,10.6,18.7,11,27c0.2,1.9-0.4,3.6-1.9,5
				c-1.5,1.4-3.2,2.1-5.1,2.1h-13.1c-4.9,0-8-1.2-9.3-3.5c-6.2-11.9-13.6-21-22.2-27.2c-8.6-6.2-20.9-9.3-36.6-9.3
				c-17.9,0-32.4,5.1-43.5,15.2c-11.1,10.1-17,24.7-17.6,43.7c-0.2,6.4-0.3,15.3-0.3,26.6c0,11.3,0.1,20.2,0.3,26.6
				c0.6,20.1,6.5,35.2,17.4,45.4c11,10.2,25.5,15.4,43.7,15.4c18.6,0,33.4-4.9,44.5-14.6c11.1-9.7,16.6-25,16.6-45.9v-9h-46.1
				c-2.3,0-4.4-0.8-6.1-2.6c-1.7-1.7-2.6-3.7-2.6-6.1v-11.5c0-2.3,0.8-4.4,2.6-6.1c1.7-1.7,3.7-2.6,6.1-2.6h67.8
				c2.3,0,4.4,0.9,6.1,2.6c1.7,1.7,2.6,3.7,2.6,6.1v30.4c0,17.1-3.6,32.3-10.9,45.6c-7.3,13.3-17.8,23.7-31.5,31.2
				c-13.8,7.5-30.1,11.2-49.1,11.2c-29.4,0-51.8-8.2-67.2-24.5c-15.4-16.3-23.5-37.5-24.3-63.5c-0.2-6.4-0.3-15.8-0.3-28.2
				c0-12.4,0.1-21.8,0.3-28.2c0.6-16.4,4.3-31.1,11-44c6.7-12.9,16.8-23.1,30.4-30.7c13.5-7.6,30.2-11.4,50.1-11.4
				C1254.4,92.9,1270.1,96.3,1283.3,103z"/>
			<path class="st0" d="M1394.4,291.3h107.5c2.3,0,4.4,0.9,6.1,2.6c1.7,1.7,2.6,3.7,2.6,6.1v11.5c0,2.3-0.9,4.4-2.6,6.1
				c-1.7,1.7-3.7,2.6-6.1,2.6h-129.3c-2.4,0-4.4-0.9-6.1-2.6c-1.7-1.7-2.6-3.7-2.6-6.1V104.7c0-2.3,0.9-4.4,2.6-6.1
				c1.7-1.7,3.7-2.6,6.1-2.6h126.7c2.3,0,4.4,0.9,6.1,2.6c1.7,1.7,2.6,3.7,2.6,6.1v11.5c0,2.3-0.9,4.4-2.6,6.1
				c-1.7,1.7-3.7,2.6-6.1,2.6h-105v67.5h97.9c2.3,0,4.4,0.9,6.1,2.6c1.7,1.7,2.6,3.7,2.6,6.1v11.5c0,2.4-0.9,4.4-2.6,6.1
				c-1.7,1.7-3.7,2.6-6.1,2.6h-97.9V291.3z"/>
			<path class="st0" d="M1690,98.7c1.7,1.7,2.6,3.7,2.6,6.1v11.5c0,2.3-0.9,4.4-2.6,6.1c-1.7,1.7-3.7,2.6-6.1,2.6h-59.8v186.6
				c0,2.3-0.9,4.4-2.6,6.1c-1.7,1.7-3.7,2.6-6.1,2.6h-13.1c-2.4,0-4.4-0.9-6.1-2.6c-1.7-1.7-2.6-3.7-2.6-6.1V124.9h-59.8
				c-2.3,0-4.4-0.8-6.1-2.6c-1.7-1.7-2.6-3.7-2.6-6.1v-11.5c0-2.3,0.8-4.4,2.6-6.1c1.7-1.7,3.7-2.6,6.1-2.6H1684
				C1686.3,96.1,1688.3,97,1690,98.7z"/>
			<path class="st0" d="M1893.2,282.5c9.6-8,14.4-19.5,14.4-34.4c0-14.9-4.8-26.4-14.4-34.4c-9.6-8-21.8-12-36.5-12
				c-8.8,0-15.6,1-20.5,3c-4.9,2-9.8,4.8-14.7,8.2c-2.6,1.9-4.8,3.4-6.6,4.3c-1.8,1-3.9,1.4-6.2,1.4h-16.3c-1.9,0-3.6-0.7-5-2.1
				c-1.4-1.4-2.1-3-2.1-5l9.6-106.9c0-2.3,0.8-4.4,2.6-6.1c1.7-1.7,3.7-2.6,6.1-2.6h113c2.3,0,4.4,0.9,6.1,2.6
				c1.7,1.7,2.6,3.7,2.6,6.1v11.5c0,2.3-0.9,4.4-2.6,6.1c-1.7,1.7-3.7,2.6-6.1,2.6h-93.1l-5.1,55.4c10.9-4.9,23.7-7.4,38.4-7.4
				c15.1,0,28.9,3,41.1,9.1c12.3,6.1,22,14.8,29.3,26.2c7.3,11.4,10.9,24.7,10.9,39.8c0,15.1-3.6,28.4-10.9,39.8
				c-7.3,11.4-17,20.2-29.3,26.2c-12.3,6.1-26,9.1-41.1,9.1c-14.1,0-27.3-2.6-39.7-7.8c-12.4-5.2-22.3-12.5-29.8-21.9
				c-7.5-9.4-11.3-19.9-11.5-31.7c0-1.9,0.7-3.6,2.1-5c1.4-1.4,3-2.1,5-2.1h14.7c1.9,0,3.6,0.6,5.1,1.9c1.5,1.3,2.6,3,3.2,5.1
				c2.8,9.8,8.9,17.7,18.2,23.7c9.4,6,20.3,9,32.6,9C1871.5,294.5,1883.6,290.5,1893.2,282.5z"/>
			<path class="st0" d="M2119.8,155.8c-1.5,1.4-3.2,2.1-5.1,2.1h-13.1c-2.6,0-4.5-0.5-5.8-1.4c-1.3-1-2.7-2.8-4.2-5.6
				c-3.4-6.6-9.3-13.1-17.8-19.5c-8.4-6.4-19.6-9.6-33.4-9.6c-12.8,0-23.6,2.9-32.5,8.6c-8.9,5.8-13.3,14-13.3,24.6
				c0,7.3,2.2,13.2,6.6,17.8c4.4,4.6,11,8.5,19.8,11.8c8.8,3.3,22.2,7.3,40.2,12c24.3,6.4,41.5,14.2,51.7,23.5
				c10.1,9.3,15.2,21.9,15.2,37.9c0,12.8-3.6,24.1-10.7,33.9c-7.2,9.8-17.2,17.5-30.2,23c-13,5.5-28.1,8.3-45.1,8.3
				c-15.8,0-30.2-3-43.2-9c-13-6-23.3-13.6-30.7-22.9c-7.5-9.3-11.4-18.5-11.8-27.7c0-1.9,0.7-3.6,2.1-5c1.4-1.4,3-2.1,5-2.1h13.1
				c2.3,0,4.3,0.5,5.8,1.4c1.5,1,2.9,2.8,4.2,5.6c3.4,7.7,9.6,14.7,18.7,21.1c9.1,6.4,21.4,9.6,37,9.6c15.6,0,28.7-3.4,39.5-10.1
				c10.8-6.7,16.2-15.5,16.2-26.4c0-7-2.8-13-8.5-17.8c-5.7-4.8-13.4-8.9-23.2-12.2c-9.8-3.3-24.2-7.4-43.2-12.3
				c-20.7-5.3-35.6-13.1-44.8-23.2c-9.2-10.1-13.8-22.7-13.8-37.6c0-11.1,2.9-21.3,8.6-30.7c5.8-9.4,14.4-17,25.9-22.7
				c11.5-5.8,25.4-8.6,41.6-8.6c16.2,0,30.4,3.2,42.6,9.4c12.2,6.3,21.5,14,28.2,23.2c6.6,9.2,10.1,17.6,10.6,25.3
				C2121.9,152.7,2121.3,154.4,2119.8,155.8z"/>
		</g>
	</g>
	<g>
		<path class="st1" d="M242.1,97.7c2.8-5,4.5-10.8,4.5-17c0-19.2-15.5-34.7-34.7-34.7c-19.2,0-34.7,15.5-34.7,34.7
			c0,5.9,1.5,11.5,4.1,16.3c9.3-2.6,19.1-4,29.2-4C221.5,93,232.1,94.7,242.1,97.7z"/>
		<path class="st2" d="M117.5,146.5c-6.4-7.8-16-12.7-26.8-12.7c-19.2,0-34.7,15.5-34.7,34.7s15.5,34.7,34.7,34.7
			c4.3,0,8.5-0.8,12.3-2.3c0-0.1,0-0.3,0-0.4C103,180.8,108.3,162.4,117.5,146.5z"/>
		<path class="st3" d="M253.6,299c-1.3,3.6-2,7.5-2,11.6c0,19.2,15.5,34.7,34.7,34.7c19.2,0,34.7-15.5,34.7-34.7
			c0-18.9-15.1-34.3-33.9-34.7C277.6,285.6,266.2,293.5,253.6,299z"/>
		<path class="st4" d="M134,276c-17.9,1.4-32,16.3-32,34.6c0,19.2,15.5,34.7,34.7,34.7s34.7-15.5,34.7-34.7c0-3.7-0.6-7.3-1.7-10.6
			C156.2,294.4,144.1,286.2,134,276z"/>
		<path class="st5" d="M332.3,133.8c-11.5,0-21.7,5.6-28,14.2c8.6,15.4,13.6,33.2,13.7,52.1c4.4,2,9.2,3.1,14.3,3.1
			c19.2,0,34.7-15.5,34.7-34.7S351.5,133.8,332.3,133.8z"/>
	</g>
</g>
<g>
	
		<rect x="1588.6" y="254" transform="matrix(1 -3.164810e-03 3.164810e-03 1 -1.0333 5.8353)" class="st6" width="509.4" height="150.8"/>
</g>
<g>
	<path class="st7" d="M1650.9,348.8l-10.4,31.8l-13.5,0l34-101.2l15.7,0l34.8,101l-14,0l-10.9-31.8L1650.9,348.8z M1684,338.5
		l-10-29.1c-2.3-6.6-3.8-12.6-5.3-18.4l-0.3,0c-1.5,6-3.1,12.2-5,18.3l-9.8,29.3L1684,338.5z"/>
	<path class="st7" d="M1726.1,279.3l13,0l0.3,90.1l43.2-0.1l0,10.9l-56.2,0.2L1726.1,279.3z"/>
	<path class="st7" d="M1796.9,280.3c6.3-1.1,14.5-2,25-2c12.9,0,22.4,2.9,28.4,8.3c5.6,4.8,8.9,12.1,8.9,21.1
		c0,9.1-2.6,16.4-7.7,21.6c-6.9,7.4-18.1,11.2-30.9,11.2c-3.9,0-7.5-0.1-10.5-0.9l0.1,40.5l-13,0L1796.9,280.3z M1810.1,329
		c2.9,0.7,6.5,1,10.8,1c15.7,0,25.3-7.7,25.3-21.7c0-13.3-9.5-19.8-23.9-19.7c-5.7,0-10,0.5-12.3,1.1L1810.1,329z"/>
	<path class="st7" d="M1889.8,278.8l0.1,42.3l48.9-0.2l-0.1-42.3l13.2,0l0.3,101.1l-13.2,0l-0.2-47.4l-48.9,0.2l0.2,47.4l-13,0
		l-0.3-101.1L1889.8,278.8z"/>
	<path class="st7" d="M1991.1,347.8l-10.4,31.8l-13.5,0l34-101.2l15.7,0l34.8,101l-13.9,0l-10.9-31.8L1991.1,347.8z M2024.2,337.5
		l-10-29.1c-2.3-6.6-3.8-12.6-5.3-18.4l-0.3,0c-1.5,6-3.1,12.2-5,18.3l-9.8,29.3L2024.2,337.5z"/>
</g>
<g>
</g>
<g>
</g>
<g>
</g>
<g>
</g>
<g>
</g>
<g>
</g>
<g>
</g>
<g>
</g>
<g>
</g>
<g>
</g>
<g>
</g>
<g>
</g>
<g>
</g>
<g>
</g>
<g>
</g>
</svg>
